<?xml version="1.0" encoding="UTF-8" standalone="no"?>
<!-- Created with Inkscape (http://www.inkscape.org/) -->

<svg
   version="1.1"
   id="svg1"
   width="776.90845"
   height="731.55341"
   viewBox="0 0 776.90846 731.55339"
   xmlns="http://www.w3.org/2000/svg"
   xmlns:svg="http://www.w3.org/2000/svg">
  <defs
     id="defs1" />
  <g
     id="g1"
     transform="translate(-293.75955,-199.88897)">
    <g
       id="group-R5">
      <path
         id="path3"
         d="M 7836.25,13133.5 C 6395.4,11946.3 5146.16,10505.7 4161.79,8886.17 c -116.13,186.47 -236.96,370.28 -364.73,551.86 -174.99,244.86 -356.5,485.28 -580.09,694.57 -224.39,211.4 -546.06,395.3 -852.75,207.6 -340.18,-230 -87.03,-704.22 256.72,-615.77 72.47,-52.31 142.44,-128.13 203.7,-200.45 128.63,-153.35 247.21,-327.56 357.1,-499.77 227.66,-359.56 435.61,-741.81 626.32,-1123.94 44.22,-83.17 108.05,-153.39 200.39,-193.04 198.97,-87.02 430.8,3.74 517.82,202.7 815.67,1865.02 1996.11,3591.37 3468.48,5048.97 104.28,114.1 -45.07,264.3 -158.5,174.6"
         transform="matrix(0.13333333,0,0,-0.13333333,0,1954.6667)" />
      <path
         id="path4"
         d="m 13575.4,13031 c 0,-32.6 -12.8,-65.3 -38,-89.8 -101.6,-98.8 -204.4,-203.3 -295.8,-305 -856.3,-938.4 -1420.1,-2096.3 -1839,-3286.79 -161.9,-456.53 -302.8,-920.64 -434.9,-1387.34 -83.7,-304.67 -487.8,-384.74 -681.5,-137.55 -337.78,431.1 -761.67,801.42 -1231.8,1081.6 -205.44,120.29 -426.5,228.74 -651.45,313.43 -111.41,41.98 -164.4,169.13 -116.5,278.17 82.44,187.46 203.67,463.4 290,659.98 54.06,123 208.52,163.3 315.79,82.5 350.21,-263.95 1064.34,-823.26 1582.96,-1371.45 105.6,244.35 215.1,487.28 329.3,728.44 614.4,1300.51 1404.8,2555.01 2515.2,3489.21 0,0 22.6,18.8 50,41.4 52.5,43.5 130.2,37.1 174.9,-14.5 20.6,-23.6 30.8,-53 30.8,-82.3"
         transform="matrix(0.13333333,0,0,-0.13333333,0,1954.6667)" />
      <path
         id="path5"
         d="m 13115.5,6929.1 c -174.3,109.05 -404,56.11 -513.1,-118.23 C 11881.6,5658.33 10901.4,3940.6 10258.5,2586.1 L 9220.03,3922.8 c -126.15,162.4 -360.03,191.8 -522.44,65.6 -162.38,-126.1 -191.74,-360 -65.6,-522.4 L 10048.2,1643.1 c 71,-91.5 179.9,-143.9 293.9,-143.9 15.6,0 31.2,0.9 46.9,2.9 130.5,16.6 242.6,100.8 294.9,221.5 594,1372.7 1738.2,3394.65 2549.9,4692.42 109,174.33 56.1,404.05 -118.3,513.08"
         transform="matrix(0.13333333,0,0,-0.13333333,0,1954.6667)" />
      <path
         id="path6"
         d="m 4200.7,1499.2 c -16.82,0 -33.77,1 -50.78,3.2 -173.46,21.9 -312.99,153.2 -345.46,325 -107.18,566.9 -379.89,1103.7 -788.66,1552.3 -46.68,51.3 -85.63,83.6 -113.1,102.8 -160.12,-72 -354.74,-32.8 -473.43,108.2 -143.39,170.3 -121.59,424.6 48.7,567.9 184.45,155.4 428.96,191.9 670.84,100.4 158.57,-60.1 314.32,-173.2 462.91,-336.3 271.02,-297.4 494.27,-627.1 664.17,-978 312.8,576.8 660.23,1137.1 1038.08,1673.8 565.68,803.51 1204.05,1560.53 1897.39,2250.03 157.85,157 413.09,156.28 570.05,-1.57 156.99,-157.86 156.28,-413.08 -1.57,-570.06 C 7119.73,5640.43 6511.89,4919.6 5973.19,4154.4 5434.49,3389.2 4960.87,2573.9 4565.47,1731.1 4498.49,1588.3 4355.38,1499.2 4200.7,1499.2"
         transform="matrix(0.13333333,0,0,-0.13333333,0,1954.6667)" />
      <path
         id="path7"
         d="m 16293.5,1499.2 c -162.1,0 -306.1,104.1 -356.8,258.3 -258.7,787.1 -732.9,1291.5 -1585.4,1686.6 -188.2,87.2 -270.1,310.5 -182.9,498.7 87.2,188.2 310.5,270.1 498.7,182.8 711.4,-329.6 1221.8,-739.4 1578.1,-1279.7 674.2,1668.6 1675.7,3059.89 2928.5,4058.05 162.2,129.28 398.5,102.54 527.8,-59.69 129.2,-162.23 102.5,-398.54 -59.7,-527.81 C 18296.7,5244.73 17262.6,3669.2 16651.3,1760.2 c -49.7,-155 -193.5,-260.4 -356.3,-261 -0.5,0 -1,0 -1.5,0"
         transform="matrix(0.13333333,0,0,-0.13333333,0,1954.6667)" />
      <path
         id="path8"
         d="m 18812.3,13140.2 c -77.5,39.1 -171.9,6 -208.2,-72.9 -52.6,-114.4 -114.8,-249.6 -148.9,-323.6 -644.9,-1344.3 -1403.8,-2641.4 -2234.6,-3880.36 -54.7,74.83 -110.2,148.99 -167,222.14 -346.5,447.7 -717.3,877.84 -1119,1277.52 -63.9,63.5 -168.8,57.9 -225.7,-11.9 l -554.5,-680.04 c -54.3,-66.55 -43,-164.74 25.1,-217.15 207.6,-159.94 622.6,-483.56 835.6,-672.02 152.8,-135.1 312.5,-279.46 456,-424.81 205.1,-207.7 377.4,-409.99 502.3,-565.94 118.2,-147.48 341.4,-150.75 464.1,-6.99 76.3,89.5 144.9,169.89 162,190.13 1056.9,1261.59 2036.6,2603.02 2890.3,4011.32 83.5,135 192.6,324.6 286.5,488 43.9,76.3 14.7,173.8 -63.9,213.4 -229.2,115.4 -672.8,338.8 -900.1,453.2"
         transform="matrix(0.13333333,0,0,-0.13333333,0,1954.6667)" />
    </g>
  </g>
</svg>
